<?xml version="1.0" encoding="UTF-8"?>
<svg width="512px" height="512px" viewBox="0 0 512 512" version="1.1" xmlns="http://www.w3.org/2000/svg" xmlns:xlink="http://www.w3.org/1999/xlink">
    <title>Favicon</title>
    <defs>
        <path d="M112,0 L400,0 C461.855892,0 512,50.144108 512,112 L512,400 C512,461.855892 461.855892,512 400,512 L112,512 C50.144108,512 0,461.855892 0,400 L0,112 C0,50.144108 50.144108,0 112,0 Z" id="path-1"></path>
        <filter x="-19.5%" y="-19.5%" width="139.1%" height="139.1%" filterUnits="objectBoundingBox" id="filter-2">
            <feMorphology radius="2" operator="erode" in="SourceAlpha" result="shadowSpreadInner1"></feMorphology>
            <feGaussianBlur stdDeviation="98.5" in="shadowSpreadInner1" result="shadowBlurInner1"></feGaussianBlur>
            <feOffset dx="0" dy="1" in="shadowBlurInner1" result="shadowOffsetInner1"></feOffset>
            <feComposite in="shadowOffsetInner1" in2="SourceAlpha" operator="arithmetic" k2="-1" k3="1" result="shadowInnerInner1"></feComposite>
            <feColorMatrix values="0 0 0 0 0   0 0 0 0 0   0 0 0 0 0  0 0 0 0.25 0" type="matrix" in="shadowInnerInner1"></feColorMatrix>
        </filter>
        <polygon id="path-3" points="19.2993164 310 19.2993164 77.1875 175.942383 77.1875 175.942383 112.98584 60.7006836 112.98584 60.7006836 176.538086 167.692871 176.538086 167.692871 211.550293 60.7006836 211.550293 60.7006836 310"></polygon>
    </defs>
    <g id="Favicon" stroke="none" fill="none" xlink:href="#path-1">
        <use fill="#333333" fill-rule="evenodd" xlink:href="#path-1"></use>
        <use fill="black" fill-opacity="1" filter="url(#filter-2)" xlink:href="#path-1"></use>
        <path stroke="#979797" stroke-width="1" d="M511.5,112 L511.5,400 C511.5,461.57975 461.57975,511.5 400,511.5 L112,511.5 C50.4202504,511.5 0.5,461.57975 0.5,400 L0.5,112 C0.5,50.4202504 50.4202504,0.5 112,0.5 L400,0.5 C461.57975,0.5 511.5,50.4202504 511.5,112 Z" stroke-linejoin="square"></path>
        <g id="F" stroke-width="1" fill-rule="evenodd" transform="translate(164, 63)" fill="#FFFFFF">
            <g id="Path" fill-rule="nonzero">
                <use xlink:href="#path-3"></use>
                <use xlink:href="#path-3"></use>
            </g>
        </g>
    </g>
</svg>